mtllib milk.mtl
o Default
v 0 0 0
v 0 4 0
v 4 4 0
v 4 0 0
v 0 0 -4
v 0 4 -4
v 4 4 -4
v 4 0 -4
v 0 0 0
v 4 0 0
v 4 0 -4
v 2 6 0
v 2 6 -4
v 2 6.5 0
v 2 6.5 -4
v 2 5 -0.5
v 2.5 5 -0.5
v 1.5 5 -0.5
v 2 5 -3.5
v 1.5 5 -3.5
v 2.5 5 -3.5
v 3.5 4.5 -2.5
v 4 5 -2.5
v 3.5 5.5 -2.75
v 3 5 -2.75
v 3 5 -1.25
v 3.5 5.5 -1.25
v 4 5 -1.5
v 3.5 4.5 -1.5
v 2.5 5.5 -1.5
v 3 6 -1.5
v 3 6 -2.5
v 2.5 5.5 -2.5
v 3.5 5.5 -2
v 4 5 -2
v 3 6 -2
vt 0.625 0.125
vt 0.875 0.375
vt 0.625 0.375
vt 0.625 0.125
vt 0.875 0.125
vt 0.875 0.375
vt 0.25 0.5
vt 0.5 0.75
vt 0.25 0.75
vt 0.25 0.5
vt 0.5 0.5
vt 0.5 0.75
vt 0 0.75
vt 0.25 1
vt 0 1
vt 0 0.75
vt 0.25 0.75
vt 0.25 1
vt 0.625 0.5
vt 0.875 0.75
vt 0.625 0.75
vt 0.625 0.5
vt 0.875 0.5
vt 0.875 0.75
vt 0 0.25
vt 0.25 0.5
vt 0 0.5
vt 0 0.25
vt 0.25 0.25
vt 0.25 0.5
vt 0 0.0625
vt 0.25 0.25
vt 0 0.25
vt 0 0.0625
vt 0.25 0.0625
vt 0.25 0.25
vt 0.375 0.1875
vt 0.625 0.375
vt 0.375 0.375
vt 0.375 0.1875
vt 0.625 0.1875
vt 0.625 0.375
vt 0 0.640625
vt 0.25 0.703125
vt 0 0.703125
vt 0 0.640625
vt 0.25 0.640625
vt 0.25 0.703125
vt 0 0.0625
vt 0.25 0.0625
vt 0.234375 0.25
vt 0 0.0625
vt 0.25 0.25
vt 0 0.25
vt 0 0.0625
vt 0.25 0.0625
vt 0.25 0.25
vt 0 0.25
vt 0.25 0.25
vt 0 0.0625
vt 0.25 0.25
vt 0.25 0.0625
vt 0 0.0625
vt 0.234375 0.25
vt 0.25 0.0625
vt 0 0.0625
vt 0 0.0625
vt 0.25 0.25
vt 0 0.25
vt 0 0.0625
vt 0.25 0.0625
vt 0.25 0.25
vt 0 0.25
vt 0.25 0.25
vt 0 0.0625
vt 0.25 0.25
vt 0.25 0.0625
vt 0 0.0625
vt 0.4375 0.75
vt 0.5 0.8125
vt 0.4375 0.8125
vt 0.4375 0.75
vt 0.5 0.75
vt 0.5 0.8125
vt 0.4375 0.75
vt 0.5 0.8125
vt 0.4375 0.8125
vt 0.4375 0.75
vt 0.5 0.75
vt 0.5 0.8125
vt 0.4375 0.75
vt 0.5 0.8125
vt 0.4375 0.8125
vt 0.4375 0.75
vt 0.5 0.75
vt 0.5 0.8125
vt 0.4375 0.75
vt 0.5 0.8125
vt 0.4375 0.8125
vt 0.4375 0.75
vt 0.5 0.75
vt 0.5 0.8125
vt 0.4375 0.8125
vt 0.5 0.8125
vt 0.4375 0.75
vt 0.5 0.8125
vt 0.5 0.75
vt 0.4375 0.75
vt 0.4375 0.8125
vt 0.5 0.8125
vt 0.4375 0.75
vt 0.5 0.8125
vt 0.5 0.75
vt 0.4375 0.75
vt 0.4375 0.8125
vt 0.5 0.8125
vt 0.4375 0.75
vt 0.5 0.8125
vt 0.5 0.75
vt 0.4375 0.75
vt 0.40625 0.84375
vt 0.40625 0.84375
vt 0.40625 0.84375
vt 0.40625 0.84375
vt 0.40625 0.84375
vt 0.40625 0.84375
vt 0.40625 0.84375
vt 0.40625 0.84375
vt 0.40625 0.84375
vt 0.40625 0.84375
vt 0.40625 0.84375
vt 0.40625 0.84375
vt 0.40625 0.84375
vt 0.40625 0.84375
vt 0.40625 0.84375
vt 0.40625 0.84375
vt 0.40625 0.84375
vt 0.40625 0.84375
vt 0.40625 0.84375
vt 0.40625 0.84375
vt 0.40625 0.84375
vt 0.40625 0.84375
vt 0.40625 0.84375
vt 0.40625 0.84375
vn -0.4472135954999579 0 0.8944271909999159
vn 0.5570295983489008 0.27934303709615643 0.7821032503379318
vn -0.7805655401252527 0.10147585863740351 0.6167820422829884
vn -0.4472135954999579 0 0.8944271909999159
vn 0.8944271909999159 0 0.44721359549995815
vn 0.5570295983489008 0.27934303709615643 0.7821032503379318
vn -0.8164829739430624 -0.4082593447141716 -0.4082644494866625
vn -0.7805655401252527 0.10147585863740351 0.6167820422829884
vn -0.5570295983489009 0.2793430370961565 -0.7821032503379319
vn -0.8164829739430624 -0.4082593447141716 -0.4082644494866625
vn -0.4472135954999579 0 0.8944271909999159
vn -0.7805655401252527 0.10147585863740351 0.6167820422829884
vn 0.8944271909999159 0 0.44721359549995815
vn 0.7805655401252529 0.10147585863740365 -0.6167820422829882
vn 0.5570295983489008 0.27934303709615643 0.7821032503379318
vn 0.8944271909999159 0 0.44721359549995815
vn 0.447213595499958 0 -0.8944271909999159
vn 0.7805655401252529 0.10147585863740365 -0.6167820422829882
vn 0.447213595499958 0 -0.8944271909999159
vn -0.5570295983489009 0.2793430370961565 -0.7821032503379319
vn 0.7805655401252529 0.10147585863740365 -0.6167820422829882
vn 0.447213595499958 0 -0.8944271909999159
vn -0.8164829739430624 -0.4082593447141716 -0.4082644494866625
vn -0.5570295983489009 0.2793430370961565 -0.7821032503379319
vn 0.00009374007815881665 -0.9999999955868683 -0.000006249922176593448
vn 0.00009374007815881665 -0.9999999955868683 -0.000006249922176593448
vn 0.00009998999980817563 -0.9999999950010001 -4.998999965579578e-13
vn 0.00009374007815881665 -0.9999999955868683 -0.000006249922176593448
vn -0.8164829739430624 -0.4082593447141716 -0.4082644494866625
vn 0.00009374007815881665 -0.9999999955868683 -0.000006249922176593448
vn 0.5570295983489008 0.27934303709615643 0.7821032503379318
vn 0.6325462080755501 0.483485469307322 -0.6050843706607547
vn 0.526035754282391 0.530889900413888 0.6644112422702433
vn 0.5570295983489008 0.27934303709615643 0.7821032503379318
vn 0.7805655401252529 0.10147585863740365 -0.6167820422829882
vn 0.6325462080755501 0.483485469307322 -0.6050843706607547
vn -0.5570295983489009 0.2793430370961565 -0.7821032503379319
vn 0.526035754282391 0.530889900413888 0.6644112422702433
vn 0.6325462080755501 0.483485469307322 -0.6050843706607547
vn -0.5570295983489009 0.2793430370961565 -0.7821032503379319
vn -0.7805655401252527 0.10147585863740351 0.6167820422829884
vn 0.526035754282391 0.530889900413888 0.6644112422702433
vn 0.526035754282391 0.530889900413888 0.6644112422702433
vn 1 -2.6645352591003757e-15 0
vn 1 -4.440892098500626e-15 -2.220446049250313e-16
vn 0.526035754282391 0.530889900413888 0.6644112422702433
vn 0.6325462080755501 0.483485469307322 -0.6050843706607547
vn 1 -2.6645352591003757e-15 0
vn -0.7805655401252527 0.10147585863740351 0.6167820422829884
vn 0.5570295983489008 0.27934303709615643 0.7821032503379318
vn 0 -0.8633618100996544 0.5045853593411607
vn 0 -0.8633618100996544 0.5045853593411607
vn 0.5570295983489008 0.27934303709615643 0.7821032503379318
vn 0.526035754282391 0.530889900413888 0.6644112422702433
vn 0 -0.8633618100996544 0.5045853593411607
vn 0 -0.44721359549995804 -0.8944271909999161
vn 0.5570295983489008 0.27934303709615643 0.7821032503379318
vn 0.526035754282391 0.530889900413888 0.6644112422702433
vn -0.7805655401252527 0.10147585863740351 0.6167820422829884
vn 0 -0.8633618100996544 0.5045853593411607
vn -0.7805655401252527 0.10147585863740351 0.6167820422829884
vn 0 -0.44721359549995804 -0.8944271909999161
vn 0 -0.8633618100996544 0.5045853593411607
vn 2.654749975999256e-16 -0.8633618100996544 -0.5045853593411607
vn 0.7805655401252529 0.10147585863740365 -0.6167820422829882
vn -0.5570295983489009 0.2793430370961565 -0.7821032503379319
vn 2.654749975999256e-16 -0.8633618100996544 -0.5045853593411607
vn -0.5570295983489009 0.2793430370961565 -0.7821032503379319
vn 0.6325462080755501 0.483485469307322 -0.6050843706607547
vn 2.654749975999256e-16 -0.8633618100996544 -0.5045853593411607
vn 0 -0.44721359549995804 0.8944271909999161
vn -0.5570295983489009 0.2793430370961565 -0.7821032503379319
vn 0.6325462080755501 0.483485469307322 -0.6050843706607547
vn 0.7805655401252529 0.10147585863740365 -0.6167820422829882
vn 2.654749975999256e-16 -0.8633618100996544 -0.5045853593411607
vn 0.7805655401252529 0.10147585863740365 -0.6167820422829882
vn 0 -0.44721359549995804 0.8944271909999161
vn 2.654749975999256e-16 -0.8633618100996544 -0.5045853593411607
vn 0.4682929057908469 -0.4682929057908469 -0.7492686492653551
vn 0.5144957554275265 0.5144957554275265 -0.6859943405700354
vn 0.8703882797784891 -0.3481553119113957 -0.34815531191139565
vn 0.4682929057908469 -0.4682929057908469 -0.7492686492653551
vn 0 0 -1
vn 0.5144957554275265 0.5144957554275265 -0.6859943405700354
vn 0.08276058886023652 -0.08276058886023652 0.9931270663228415
vn 0.6298520580449617 -0.04845015831115064 0.775202532978415
vn 0.4740998230350172 0.3386427307392983 0.8127425537743157
vn 0.08276058886023652 -0.08276058886023652 0.9931270663228415
vn 0.5773502691896256 -0.5773502691896256 0.5773502691896261
vn 0.6298520580449617 -0.04845015831115064 0.775202532978415
vn 0.5773502691896256 -0.5773502691896256 0.5773502691896261
vn 0.8703882797784891 -0.3481553119113957 -0.34815531191139565
vn 0.6298520580449617 -0.04845015831115064 0.775202532978415
vn 0.5773502691896256 -0.5773502691896256 0.5773502691896261
vn 0.4682929057908469 -0.4682929057908469 -0.7492686492653551
vn 0.8703882797784891 -0.3481553119113957 -0.34815531191139565
vn 0.08276058886023652 -0.08276058886023652 0.9931270663228415
vn 0.6298520580449617 -0.04845015831115064 0.775202532978415
vn 0.4740998230350172 0.3386427307392983 0.8127425537743157
vn 0.08276058886023652 -0.08276058886023652 0.9931270663228415
vn 0.5773502691896256 -0.5773502691896256 0.5773502691896261
vn 0.6298520580449617 -0.04845015831115064 0.775202532978415
vn 0.07332355751067661 0.8065591326174432 0.5865884600854133
vn -0.34815531191139565 0.8703882797784891 -0.34815531191139565
vn -0.6556100681071858 0.6556100681071858 0.37463432463267765
vn -0.34815531191139565 0.8703882797784891 -0.34815531191139565
vn -0.4682929057908469 0.4682929057908469 -0.7492686492653551
vn -0.6556100681071858 0.6556100681071858 0.37463432463267765
vn 0.4740998230350172 0.3386427307392983 0.8127425537743157
vn 0.07332355751067661 0.8065591326174432 0.5865884600854133
vn 0.08276058886023652 -0.08276058886023652 0.9931270663228415
vn 0.07332355751067661 0.8065591326174432 0.5865884600854133
vn -0.6556100681071858 0.6556100681071858 0.37463432463267765
vn 0.08276058886023652 -0.08276058886023652 0.9931270663228415
vn -0.34815531191139565 0.8703882797784891 -0.34815531191139565
vn 0.5144957554275265 0.5144957554275265 -0.6859943405700354
vn -0.4682929057908469 0.4682929057908469 -0.7492686492653551
vn 0.5144957554275265 0.5144957554275265 -0.6859943405700354
vn 0 0 -1
vn -0.4682929057908469 0.4682929057908469 -0.7492686492653551
vn 0.6298520580449617 -0.04845015831115064 0.775202532978415
vn 0.7071067811865476 0.7071067811865476 0
vn 0.4740998230350172 0.3386427307392983 0.8127425537743157
vn 0.6298520580449617 -0.04845015831115064 0.775202532978415
vn 0.7071067811865475 0.7071067811865475 0
vn 0.7071067811865476 0.7071067811865476 0
vn 0.7071067811865475 0.7071067811865475 0
vn 0.5144957554275265 0.5144957554275265 -0.6859943405700354
vn 0.7071067811865476 0.7071067811865476 0
vn 0.7071067811865475 0.7071067811865475 0
vn 0.8703882797784891 -0.3481553119113957 -0.34815531191139565
vn 0.5144957554275265 0.5144957554275265 -0.6859943405700354
vn 0.4740998230350172 0.3386427307392983 0.8127425537743157
vn 0.7071067811865476 0.7071067811865476 0
vn 0.07332355751067661 0.8065591326174432 0.5865884600854133
vn 0.7071067811865476 0.7071067811865476 0
vn 0.7071067811865476 0.7071067811865476 0
vn 0.07332355751067661 0.8065591326174432 0.5865884600854133
vn 0.7071067811865476 0.7071067811865476 0
vn 0.5144957554275265 0.5144957554275265 -0.6859943405700354
vn 0.7071067811865476 0.7071067811865476 0
vn 0.5144957554275265 0.5144957554275265 -0.6859943405700354
vn -0.34815531191139565 0.8703882797784891 -0.34815531191139565
vn 0.7071067811865476 0.7071067811865476 0
g Scene
usemtl material1
f 1/1/1 3/2/2 2/3/3
f 1/4/4 4/5/5 3/6/6
f 5/7/7 2/8/8 6/9/9
f 5/10/10 1/11/11 2/12/12
f 4/13/13 7/14/14 3/15/15
f 4/16/16 8/17/17 7/18/18
f 8/19/19 6/20/20 7/21/21
f 8/22/22 5/23/23 6/24/24
f 9/25/25 11/26/26 10/27/27
f 9/28/28 5/29/29 11/30/30
f 3/31/31 13/32/32 12/33/33
f 3/34/34 7/35/35 13/36/36
f 6/37/37 12/38/38 13/39/39
f 6/40/40 2/41/41 12/42/42
f 12/43/43 15/44/44 14/45/45
f 12/46/46 13/47/47 15/48/48
f 2/49/49 3/50/50 16/51/51
f 16/52/52 3/53/53 12/54/54
f 16/55/55 17/56/56 3/57/57
f 12/58/58 2/59/59 16/60/60
f 2/61/61 18/62/62 16/63/63
f 19/64/64 7/65/65 6/66/66
f 19/67/67 6/68/68 13/69/69
f 19/70/70 20/71/71 6/72/72
f 13/73/73 7/74/74 19/75/75
f 7/76/76 21/77/77 19/78/78
f 22/79/79 24/80/80 23/81/81
f 22/82/82 25/83/83 24/84/84
f 26/85/85 28/86/86 27/87/87
f 26/88/88 29/89/89 28/90/90
f 29/91/91 23/92/92 28/93/93
f 29/94/94 22/95/95 23/96/96
f 26/97/97 28/98/98 27/99/99
f 26/100/100 29/101/101 28/102/102
f 31/103/103 32/104/104 30/105/105
f 32/106/106 33/107/107 30/108/108
f 27/109/109 31/110/110 26/111/111
f 31/112/112 30/113/113 26/114/114
f 32/115/115 24/116/116 33/117/117
f 24/118/118 25/119/119 33/120/120
f 28/121/121 34/122/122 27/123/123
f 28/124/124 35/125/125 34/126/126
f 35/127/127 24/128/128 34/129/129
f 35/130/130 23/131/131 24/132/132
f 27/133/133 34/134/134 31/135/135
f 34/136/136 36/137/137 31/138/138
f 34/139/139 24/140/140 36/141/141
f 24/142/142 32/143/143 36/144/144
